<svg width="430" height="80" viewBox="0 0 430 80" fill="none" xmlns="http://www.w3.org/2000/svg">
<path d="M0 29.2817L14.3333 26.4826C28.6667 23.4723 57.3333 18.191 86 23.6307C114.667 29.2817 143.333 46.1817 172 40.5307C200.667 35.091 229.333 6.57228 258 1.13259C286.667 -4.51834 315.333 12.3817 344 20.8317C372.667 29.2817 401.333 29.2817 415.667 29.2817H430V79.9817H415.667C401.333 79.9817 372.667 79.9817 344 79.9817C315.333 79.9817 286.667 79.9817 258 79.9817C229.333 79.9817 200.667 79.9817 172 79.9817C143.333 79.9817 114.667 79.9817 86 79.9817C57.3333 79.9817 28.6667 79.9817 14.3333 79.9817H0V29.2817Z" fill="#71D4F9" fill-opacity="0.1"/>
<path d="M0 32.3131C10.7635 37.7854 1.5622 32.2293 18.5969 42.7611C35.7279 53.1812 52.9876 53.1812 70.0223 47.2309C87.1533 41.1688 104.413 29.4357 121.448 20.4124C138.579 11.5567 155.838 5.41076 172.873 14.4341C190.004 23.2898 207.264 47.3147 224.298 48.7115C241.43 50.1083 258.689 29.4357 275.724 24.8821C292.855 20.4962 310.115 32.2293 327.149 41.2526C344.28 50.1083 361.54 56.2542 378.575 53.1812C395.706 50.1083 412.965 38.3752 421.322 32.3131L430 26.3627V79.9998H421.418C412.869 79.9998 395.609 79.9998 378.575 79.9998C361.444 79.9998 344.184 79.9998 327.149 79.9998C310.018 79.9998 292.758 79.9998 275.724 79.9998C258.593 79.9998 241.333 79.9998 224.298 79.9998C207.167 79.9998 189.908 79.9998 172.873 79.9998C155.742 79.9998 138.482 79.9998 121.448 79.9998C104.317 79.9998 87.0569 79.9998 70.0223 79.9998C52.8912 79.9998 35.6315 79.9998 18.5969 79.9998C1.46577 79.9998 8.35663 79.9998 0 79.9998V56.1564V32.3131Z" fill="#71D4F9" fill-opacity="0.1"/>
</svg>
